name ./resultDataOpenSim/trcMotMarkerGrf/sub10/grf-04-03.mot
datacolumns 19
datarows 27
range 1.01600000 1.12000000
endheader

                time	     ground_force_vx	     ground_force_vy	     ground_force_vz	     ground_force_px	     ground_force_py	     ground_force_pz	   l_ground_force_vx	   l_ground_force_vy	   l_ground_force_vz	   l_ground_force_px	   l_ground_force_py	   l_ground_force_pz	     ground_torque_x	     ground_torque_y	     ground_torque_z	   l_ground_torque_x	   l_ground_torque_y	   l_ground_torque_z	
          1.01600000	          0.00000000	          0.00000000	          0.00000000	          0.00000000	          0.00000000	          0.00000000	        -22.19386206	        420.41040800	         13.05568510	          0.02943255	         -0.07500000	         -0.10752273	          0.00000000	          0.00000000	          0.00000000	          0.00000000	          0.12807565	          0.00000000	
          1.02000000	          0.00000000	          0.00000000	          0.00000000	          0.00000000	          0.00000000	          0.00000000	        -20.47511299	        407.22759514	         12.95675454	          0.02994010	         -0.07500000	         -0.10740350	          0.00000000	          0.00000000	          0.00000000	          0.00000000	          0.12808607	          0.00000000	
          1.02400000	          0.00000000	          0.00000000	          0.00000000	          0.00000000	          0.00000000	          0.00000000	        -18.71972486	        394.58931195	         12.96648930	          0.03011933	         -0.07500000	         -0.10742076	          0.00000000	          0.00000000	          0.00000000	          0.00000000	          0.12725241	          0.00000000	
          1.02800000	          0.00000000	          0.00000000	          0.00000000	          0.00000000	          0.00000000	          0.00000000	        -16.92678183	        382.61120404	         13.07482166	          0.02992413	         -0.07500000	         -0.10759269	          0.00000000	          0.00000000	          0.00000000	          0.00000000	          0.12364541	          0.00000000	
          1.03200000	          0.00000000	          0.00000000	          0.00000000	          0.00000000	          0.00000000	          0.00000000	        -15.08869350	        371.47272730	         13.25849356	          0.02944452	         -0.07500000	         -0.10786092	          0.00000000	          0.00000000	          0.00000000	          0.00000000	          0.11538856	          0.00000000	
          1.03600000	          0.00000000	          0.00000000	          0.00000000	          0.00000000	          0.00000000	          0.00000000	        -13.20066194	        361.35947893	         13.49148543	          0.02881523	         -0.07500000	         -0.10814268	          0.00000000	          0.00000000	          0.00000000	          0.00000000	          0.10103620	          0.00000000	
          1.04000000	          0.00000000	          0.00000000	          0.00000000	          0.00000000	          0.00000000	          0.00000000	        -11.27182747	        352.38817992	         13.74653100	          0.02818616	         -0.07500000	         -0.10836237	          0.00000000	          0.00000000	          0.00000000	          0.00000000	          0.07979315	          0.00000000	
          1.04400000	          0.00000000	          0.00000000	          0.00000000	          0.00000000	          0.00000000	          0.00000000	         -9.32332747	        344.59714764	         13.99451546	          0.02768726	         -0.07500000	         -0.10846728	          0.00000000	          0.00000000	          0.00000000	          0.00000000	          0.05155625	          0.00000000	
          1.04800000	          0.00000000	          0.00000000	          0.00000000	          0.00000000	          0.00000000	          0.00000000	         -7.37763538	        337.99866969	         14.20599083	          0.02740852	         -0.07500000	         -0.10841435	          0.00000000	          0.00000000	          0.00000000	          0.00000000	          0.01679255	          0.00000000	
          1.05200000	          0.00000000	          0.00000000	          0.00000000	          0.00000000	          0.00000000	          0.00000000	         -5.44874766	        332.60293980	         14.35872754	          0.02736411	         -0.07500000	         -0.10819988	          0.00000000	          0.00000000	          0.00000000	          0.00000000	         -0.02368241	          0.00000000	
          1.05600000	          0.00000000	          0.00000000	          0.00000000	          0.00000000	          0.00000000	          0.00000000	         -3.53293134	        328.41022319	         14.44622545	          0.02748269	         -0.07500000	         -0.10788706	          0.00000000	          0.00000000	          0.00000000	          0.00000000	         -0.06894256	          0.00000000	
          1.06000000	          0.00000000	          0.00000000	          0.00000000	          0.00000000	          0.00000000	          0.00000000	         -1.59686790	        325.42812575	         14.47863793	          0.02766295	         -0.07500000	         -0.10757327	          0.00000000	          0.00000000	          0.00000000	          0.00000000	         -0.11814962	          0.00000000	
          1.06400000	          0.00000000	          0.00000000	          0.00000000	          0.00000000	          0.00000000	          0.00000000	          0.42308683	        323.70562536	         14.47799243	          0.02784193	         -0.07500000	         -0.10733765	          0.00000000	          0.00000000	          0.00000000	          0.00000000	         -0.17068471	          0.00000000	
          1.06800000	          0.00000000	          0.00000000	          0.00000000	          0.00000000	          0.00000000	          0.00000000	          2.59434780	        323.34808022	         14.47213751	          0.02801298	         -0.07500000	         -0.10720789	          0.00000000	          0.00000000	          0.00000000	          0.00000000	         -0.22619415	          0.00000000	
          1.07200000	          0.00000000	          0.00000000	          0.00000000	          0.00000000	          0.00000000	          0.00000000	          4.95698590	        324.50945644	         14.48878389	          0.02819364	         -0.07500000	         -0.10716172	          0.00000000	          0.00000000	          0.00000000	          0.00000000	         -0.28457711	          0.00000000	
          1.07600000	          0.00000000	          0.00000000	          0.00000000	          0.00000000	          0.00000000	          0.00000000	          7.52351134	        327.36360006	         14.55213498	          0.02840974	         -0.07500000	         -0.10715527	          0.00000000	          0.00000000	          0.00000000	          0.00000000	         -0.34605569	          0.00000000	
          1.08000000	          0.00000000	          0.00000000	          0.00000000	          0.00000000	          0.00000000	          0.00000000	         10.29300190	        332.05276376	         14.68088210	          0.02870899	         -0.07500000	         -0.10712817	          0.00000000	          0.00000000	          0.00000000	          0.00000000	         -0.41149855	          0.00000000	
          1.08400000	          0.00000000	          0.00000000	          0.00000000	          0.00000000	          0.00000000	          0.00000000	         13.24607904	        338.64928996	         14.88192515	          0.02914694	         -0.07500000	         -0.10701056	          0.00000000	          0.00000000	          0.00000000	          0.00000000	         -0.48294512	          0.00000000	
          1.08800000	          0.00000000	          0.00000000	          0.00000000	          0.00000000	          0.00000000	          0.00000000	         16.33202962	        347.18014858	         15.13893245	          0.02973227	         -0.07500000	         -0.10675988	          0.00000000	          0.00000000	          0.00000000	          0.00000000	         -0.56394108	          0.00000000	
          1.09200000	          0.00000000	          0.00000000	          0.00000000	          0.00000000	          0.00000000	          0.00000000	         19.46763673	        357.67648493	         15.40280638	          0.03038143	         -0.07500000	         -0.10638724	          0.00000000	          0.00000000	          0.00000000	          0.00000000	         -0.65922176	          0.00000000	
          1.09600000	          0.00000000	          0.00000000	          0.00000000	          0.00000000	          0.00000000	          0.00000000	         22.55125385	        370.15359269	         15.60008386	          0.03096689	         -0.07500000	         -0.10592626	          0.00000000	          0.00000000	          0.00000000	          0.00000000	         -0.77361964	          0.00000000	
          1.10000000	          0.00000000	          0.00000000	          0.00000000	          0.00000000	          0.00000000	          0.00000000	         25.48886345	        384.52689921	         15.66844369	          0.03138909	         -0.07500000	         -0.10540189	          0.00000000	          0.00000000	          0.00000000	          0.00000000	         -0.91058409	          0.00000000	
          1.10400000	          0.00000000	          0.00000000	          0.00000000	          0.00000000	          0.00000000	          0.00000000	         28.21576581	        400.58177149	         15.59270027	          0.03160070	         -0.07500000	         -0.10486949	          0.00000000	          0.00000000	          0.00000000	          0.00000000	         -1.07100473	          0.00000000	
          1.10800000	          0.00000000	          0.00000000	          0.00000000	          0.00000000	          0.00000000	          0.00000000	         30.71461386	        418.05604712	         15.40430053	          0.03161165	         -0.07500000	         -0.10441621	          0.00000000	          0.00000000	          0.00000000	          0.00000000	         -1.25291760	          0.00000000	
          1.11200000	          0.00000000	          0.00000000	          0.00000000	          0.00000000	          0.00000000	          0.00000000	         33.03081357	        436.74355978	         15.14811009	          0.03147975	         -0.07500000	         -0.10406560	          0.00000000	          0.00000000	          0.00000000	          0.00000000	         -1.45224213	          0.00000000	
          1.11600000	          0.00000000	          0.00000000	          0.00000000	          0.00000000	          0.00000000	          0.00000000	         35.25905716	        456.49613378	         14.85052861	          0.03131774	         -0.07500000	         -0.10374160	          0.00000000	          0.00000000	          0.00000000	          0.00000000	         -1.66419394	          0.00000000	
          1.12000000	          0.00000000	          0.00000000	          0.00000000	          0.00000000	          0.00000000	          0.00000000	         37.51276455	        477.14184653	         14.51145791	          0.03122107	         -0.07500000	         -0.10338504	          0.00000000	          0.00000000	          0.00000000	          0.00000000	         -1.88471211	          0.00000000	
